<svg id="Capa_1" enable-background="new 0 0 512 512" height="512" viewBox="0 0 512 512" width="512" xmlns="http://www.w3.org/2000/svg"><g><g><g><g><g><g><g><circle cx="256" cy="256" fill="#ff583e" r="256"/></g></g></g></g></g></g><path d="m510.639 282.558-222.558-222.558-110.403 298.559-85.877 50.757 92.511 92.511c22.747 6.622 46.803 10.173 71.688 10.173 132.417 0 241.352-100.536 254.639-229.442z" fill="#db0404"/><g><path d="m389.523 374.131h-267.046l27.417-84.9 15.219-34.666 6.243-31.796 15.508-48.023 17.778-33.23 3.685-33.231 15.592-48.285h64.162l15.592 48.285.661 25.738 20.802 40.723 15.508 48.023 3.654 26.584 17.808 39.878z" fill="#ffce00"/></g><g><path d="m362.106 289.231-17.808-39.878-3.654-26.584-15.508-48.023-20.802-40.724-.661-25.737-15.592-48.285h-32.437v314.131h133.879z" fill="#fdba12"/></g><g><path d="m91.801 342.855h328.398v66.461h-328.398z" fill="#fff"/></g><g><path d="m255.644 342.855h164.555v66.461h-164.555z" fill="#e9edf5"/></g><g><path d="m186.864 174.746h138.272l-21.463-66.461h-95.346z" fill="#fff"/></g><g><path d="m303.673 108.285h-48.029v66.461h69.492z" fill="#e9edf5"/></g><g><path d="m149.894 289.231h212.212l-21.462-66.462h-169.288z" fill="#fff"/></g><g><path d="m340.644 222.769h-85v66.462h106.462z" fill="#e9edf5"/></g></g></svg>